<svg width="27" height="74" viewBox="0 0 27 74" fill="none" xmlns="http://www.w3.org/2000/svg">
<path d="M8.70711 0.292893C8.31659 -0.0976311 7.68342 -0.0976311 7.2929 0.292893L0.928935 6.65685C0.538411 7.04738 0.538411 7.68054 0.928935 8.07107C1.31946 8.46159 1.95262 8.46159 2.34315 8.07107L8 2.41421L13.6569 8.07107C14.0474 8.46159 14.6805 8.46159 15.0711 8.07107C15.4616 7.68054 15.4616 7.04738 15.0711 6.65685L8.70711 0.292893ZM9 73L9 1L7 1L7 73L9 73Z" fill="url(#paint0_linear_1538_1607)"/>
<path d="M18.2929 73.7071C18.6834 74.0976 19.3166 74.0976 19.7071 73.7071L26.0711 67.3431C26.4616 66.9526 26.4616 66.3195 26.0711 65.9289C25.6805 65.5384 25.0474 65.5384 24.6569 65.9289L19 71.5858L13.3431 65.9289C12.9526 65.5384 12.3195 65.5384 11.9289 65.9289C11.5384 66.3195 11.5384 66.9526 11.9289 67.3431L18.2929 73.7071ZM18 1L18 73L20 73L20 1L18 1Z" fill="url(#paint1_linear_1538_1607)"/>
<defs>
<linearGradient id="paint0_linear_1538_1607" x1="8" y1="1" x2="8" y2="70.3913" gradientUnits="userSpaceOnUse">
<stop stop-color="white"/>
<stop offset="1" stop-color="white" stop-opacity="0"/>
</linearGradient>
<linearGradient id="paint1_linear_1538_1607" x1="19" y1="73" x2="19" y2="2.63636" gradientUnits="userSpaceOnUse">
<stop stop-color="white"/>
<stop offset="1" stop-color="white" stop-opacity="0"/>
</linearGradient>
</defs>
</svg>
