<svg width="44" height="45" viewBox="0 0 44 45" fill="none" xmlns="http://www.w3.org/2000/svg">
<path d="M22.1345 0.752436L22.1339 0.752426C18.3952 0.695683 14.7087 1.63515 11.4532 3.47435C8.19767 5.31354 5.49038 7.98617 3.60939 11.2177C1.72839 14.4493 0.741496 18.1233 0.750055 21.8624C0.758541 25.5694 1.74512 29.2078 3.60935 32.4106L1.89929 40.7016C1.89924 40.7018 1.89919 40.7021 1.89914 40.7023C1.80496 41.1466 1.81107 41.6063 1.91701 42.0479C2.02302 42.4898 2.2263 42.9024 2.51204 43.2557C2.79777 43.6091 3.15876 43.8942 3.56868 44.0903C3.97859 44.2863 4.4271 44.3885 4.8815 44.3892C5.15559 44.3896 5.4285 44.3536 5.69308 44.2822L5.69383 44.282L15.0063 41.7363C19.405 43.2279 24.1742 43.2241 28.5716 41.724C32.9934 40.2156 36.7882 37.28 39.3591 33.3791C41.9299 29.4781 43.131 24.8331 42.7732 20.1749C42.4155 15.5167 40.5193 11.1096 37.3829 7.64693L37.1979 7.81451L37.3823 7.64631C35.4435 5.52029 33.0912 3.81231 30.4694 2.62693C27.8475 1.44155 25.0114 0.803707 22.1345 0.752436ZM15.3459 39.6086L15.3428 39.6076C15.1172 39.5287 14.8718 39.5277 14.6456 39.6045L5.06637 42.2163C4.91845 42.2507 4.76427 42.2477 4.61777 42.2075C4.47 42.1671 4.33479 42.0901 4.22455 41.9837C4.11431 41.8773 4.03258 41.7449 3.98687 41.5987C3.94127 41.4528 3.93298 41.2978 3.96276 41.1478C3.96283 41.1475 3.9629 41.1472 3.96297 41.1468L5.78086 32.4669C5.81835 32.328 5.82746 32.183 5.80762 32.0405C5.78737 31.8951 5.73742 31.7554 5.66087 31.6302L5.66083 31.6301C3.4243 27.9729 2.50349 23.6617 3.05078 19.4099C3.59807 15.1582 5.58065 11.2207 8.67043 8.24909L8.67045 8.2491L8.67282 8.24676C10.4404 6.50078 12.5384 5.12497 14.8443 4.19986C17.1501 3.27477 19.6172 2.81896 22.1014 2.85913C24.6839 2.90168 27.2306 3.47038 29.5859 4.53048C31.9412 5.59058 34.0557 7.11981 35.8 9.02472L35.8002 9.02499C37.5573 10.9382 38.8987 13.1948 39.7398 15.6525C40.5808 18.1102 40.9032 20.7156 40.6867 23.3042L40.6858 23.3146V23.325V23.3803C40.4471 26.2795 39.5433 29.0846 38.0446 31.5779C36.544 34.074 34.4876 36.1902 32.0355 37.7615C29.5833 39.3329 26.8015 40.3171 23.9068 40.6375C21.012 40.9578 18.0823 40.6058 15.3459 39.6086Z" fill="white" stroke="white" stroke-width="0.5"/>
<path d="M21.8181 8.88093C19.7329 8.87219 17.7294 9.69048 16.2465 11.1565C14.7636 12.6224 13.9224 14.6165 13.9072 16.7016C13.9072 16.841 13.9072 16.9804 13.9072 17.1197C13.9284 17.4445 14.0757 17.7481 14.3177 17.9656C14.5598 18.1831 14.8773 18.2973 15.2025 18.2838C15.364 18.2754 15.5224 18.2352 15.6684 18.1656C15.8144 18.0959 15.9452 17.9981 16.0533 17.8777C16.1615 17.7574 16.2448 17.6169 16.2985 17.4644C16.3523 17.3118 16.3754 17.1501 16.3666 16.9885C16.3666 16.8902 16.3666 16.8 16.3666 16.7016C16.3666 15.2558 16.9409 13.8692 17.9633 12.8468C18.9856 11.8244 20.3723 11.2501 21.8181 11.2501C23.2639 11.2501 24.6506 11.8244 25.6729 12.8468C26.6953 13.8692 27.2696 15.2558 27.2696 16.7016C27.2696 18.6855 25.7366 19.9807 23.9905 21.4236L23.3511 21.9564C20.695 24.2026 20.6704 25.7356 20.6212 29.8181V30.2116C20.6168 30.5349 20.7399 30.847 20.9639 31.0802C21.188 31.3135 21.4948 31.4491 21.8181 31.4577V31.4577C22.1414 31.4577 22.4517 31.3304 22.6819 31.1033C22.912 30.8762 23.0435 30.5677 23.0478 30.2444V29.8509C23.097 25.9569 23.1052 25.3585 24.9087 23.8337L25.5235 23.3172C27.491 21.6777 29.7208 19.8414 29.7208 16.7016C29.7056 14.6179 28.8655 12.6251 27.3844 11.1594C25.9033 9.69362 23.9018 8.87437 21.8181 8.88093Z" fill="white"/>
<path d="M21.8184 36.3673C22.6107 36.3673 23.253 35.725 23.253 34.9327C23.253 34.1403 22.6107 33.498 21.8184 33.498C21.0261 33.498 20.3838 34.1403 20.3838 34.9327C20.3838 35.725 21.0261 36.3673 21.8184 36.3673Z" fill="white"/>
</svg>
