<svg width="36" height="15" viewBox="0 0 36 15" fill="none" xmlns="http://www.w3.org/2000/svg">
<path d="M0 0H3.87449V14.0514H0V0Z" fill="white"/>
<path d="M10.6938 6.5645C10.3715 4.423 10.1922 3.23265 10.1568 2.99506C9.99975 1.84871 9.85007 0.851161 9.70698 0C9.38214 0 7.76124 0 4.8418 0V14.0514H8.12884L8.14035 4.77338L9.52359 14.0514H11.8649L13.1766 4.56699L13.1889 14.0514H16.4653V0H11.5631L10.6938 6.5645Z" fill="white"/>
<path d="M22.4159 2.92306C22.458 3.10226 22.4799 3.50864 22.4799 4.14381C22.4799 4.68858 22.4799 9.04678 22.4799 9.59156C22.4799 10.5267 22.416 11.0995 22.2889 11.3107C22.1611 11.5219 21.8213 11.6267 21.2703 11.6267C21.2703 10.7043 21.2703 3.32545 21.2703 2.40309C21.6884 2.40309 21.9735 2.44549 22.1249 2.52868C22.2763 2.61268 22.3739 2.74387 22.4159 2.92306ZM24.1495 13.9082C24.6063 13.813 24.9898 13.645 25.3011 13.4058C25.6114 13.1658 25.8293 12.8338 25.9538 12.409C26.0791 11.985 26.1531 11.1427 26.1531 9.88274C26.1531 9.38997 26.1531 5.44215 26.1531 4.94857C26.1531 3.61903 26.0985 2.72787 26.0135 2.27509C25.9277 1.82152 25.7149 1.40953 25.3742 1.03995C25.0327 0.670369 24.5348 0.404781 23.8804 0.243189C23.2251 0.0815963 22.1569 0 20.2988 0C20.1079 0 19.154 0 17.4355 0V14.0514H22.0854C23.157 14.0194 23.8451 13.9722 24.1495 13.9082Z" fill="white"/>
<path d="M32.0192 11.7764C31.9484 11.9525 31.638 12.0418 31.4036 12.0418C31.1742 12.0418 31.0215 11.9565 30.944 11.7851C30.8664 11.6146 30.8284 11.2253 30.8284 10.6157C30.8284 10.2493 30.8284 7.31665 30.8284 6.95027C30.8284 6.31857 30.8621 5.92455 30.9305 5.76741C30.9979 5.61186 31.1464 5.53289 31.3757 5.53289C31.6102 5.53289 31.9248 5.62212 32.0057 5.80136C32.0858 5.98061 32.1263 6.36358 32.1263 6.95027C32.1263 7.18715 32.1263 8.37159 32.1263 10.5044C32.1019 11.2348 32.0664 11.6588 32.0192 11.7764ZM27.1211 13.8697H30.5855C30.7297 13.3399 30.809 13.0454 30.825 12.9861C31.1388 13.3415 31.4837 13.6084 31.8623 13.7852C32.2393 13.9629 32.8035 14.0514 33.2404 14.0514C33.8484 14.0514 34.373 13.9021 34.8157 13.6028C35.2576 13.3044 35.5393 12.9506 35.6591 12.544C35.7788 12.1365 35.8387 11.5174 35.8387 10.6852C35.8387 10.2959 35.8387 7.18321 35.8387 6.79392C35.8387 5.95692 35.8185 5.4105 35.7788 5.15387C35.7392 4.89725 35.6211 4.63588 35.4246 4.3682C35.2281 4.10051 34.9422 3.89284 34.5678 3.7444C34.1933 3.59595 33.7514 3.52172 33.2421 3.52172C32.7993 3.52172 32.2326 3.60463 31.8548 3.76808C31.4778 3.93154 31.1354 4.17948 30.8284 4.51191C30.8284 4.21106 30.8284 2.70762 30.8284 0H27.1211V13.8697Z" fill="white"/>
</svg>
