<svg width="22" height="22" viewBox="0 0 22 22" fill="none" xmlns="http://www.w3.org/2000/svg">
<path fill-rule="evenodd" clip-rule="evenodd" d="M19 11.1527V19C19 20.1046 18.1046 21 17 21H4C2.89543 21 2 20.1046 2 19V6C2 4.89543 2.89543 4 4 4H11.9258L12.9258 3H4C2.34315 3 1 4.34315 1 6V19C1 20.6569 2.34315 22 4 22H17C18.6569 22 20 20.6569 20 19V10.1527L19 11.1527Z" fill="white"/>
<path d="M11.4544 15.1013L7 16L7.89875 11.545L11.4544 15.1013ZM12.3381 14.2175L19.3556 7.20188L15.7994 3.64437L8.7825 10.6613L12.3381 14.2175V14.2175ZM18.4431 1L16.6831 2.76062L20.24 6.3175L22 4.55563L18.4431 1V1Z" fill="white"/>
</svg>
