<svg width="24" height="20" viewBox="0 0 24 20" fill="none" xmlns="http://www.w3.org/2000/svg">
<path d="M9.39796 17.252L9.37162 17.2512L9.35058 17.2671C8.44414 17.9518 7.37446 18.6176 6.38136 19.1119C5.88484 19.359 5.40852 19.5627 4.98213 19.7045C4.55472 19.8466 4.18193 19.925 3.891 19.925C3.4535 19.925 3.18127 19.7302 3.06758 19.4721C2.95248 19.2109 2.9916 18.8666 3.21666 18.5546L3.21681 18.5544C3.62078 17.9904 4.37704 16.8596 4.78343 16.0134L4.81559 15.9464L4.74893 15.9136C1.93905 14.5312 0.075 11.7779 0.075 8.6778C0.075 3.92792 4.54854 0.075 10.1668 0.075C15.7851 0.075 20.2586 3.92792 20.2586 8.6778C20.2586 13.6247 15.6192 17.4326 9.39796 17.252ZM4.86019 18.4849L4.8602 18.485L4.86217 18.4841C5.68674 18.1271 7.2885 17.0819 8.3926 16.2312L8.39265 16.2313L8.39509 16.2292C8.72725 15.95 8.9969 15.8274 9.34906 15.8363C9.43872 15.8387 9.5235 15.8411 9.60306 15.8433C9.84056 15.85 10.0315 15.8554 10.1668 15.8554C15.0351 15.8554 18.9293 12.6465 18.9293 8.6778C18.9293 4.71864 15.035 1.50973 10.1668 1.50973C5.30754 1.50973 1.41326 4.71868 1.41326 8.6778C1.41326 11.2628 3.0508 13.5094 5.88381 14.912C6.15796 15.0489 6.2981 15.2158 6.34688 15.3955C6.39617 15.5772 6.35683 15.7887 6.23603 16.0229L6.23539 16.0242C5.93437 16.637 5.22193 17.6239 4.71922 18.2835C4.68854 18.3229 4.66481 18.3852 4.69643 18.4414C4.73404 18.5081 4.80991 18.505 4.86019 18.4849Z" fill="white" stroke="#121212" stroke-width="0.15"/>
<ellipse cx="19.305" cy="5" rx="4.69565" ry="5" fill="#EE373B"/>
</svg>
