<svg width="24" height="20" viewBox="0 0 24 20" fill="none" xmlns="http://www.w3.org/2000/svg">
<path d="M23 8.25C23.2761 8.25 23.5 8.02614 23.5 7.75V3.25C23.5 1.73412 22.2951 0.5 20.8 0.5H3.2C1.70171 0.5 0.511 1.73741 0.511 3.25V7.75C0.511 8.02614 0.734858 8.25 1.011 8.25C1.93111 8.25 2.7 9.02469 2.7 10C2.7 10.9737 1.93272 11.75 1 11.75C0.723858 11.75 0.5 11.9739 0.5 12.25V16.75C0.5 18.253 1.70332 19.5 3.2 19.5H20.8C22.2967 19.5 23.5 18.253 23.5 16.75V12.25C23.5 11.9739 23.2761 11.75 23 11.75C22.0767 11.75 21.3 10.972 21.3 10C21.3 9.02799 22.0767 8.25 23 8.25ZM12.6 15.6875H11.4V14.4375H12.6V15.6875ZM12.6 10.625H11.4V9.375H12.6V10.625ZM12.6 5.5625H11.4V4.3125H12.6V5.5625Z" stroke="white" stroke-linejoin="round"/>
<rect x="11" y="4" width="2" height="2" fill="white"/>
<rect x="11" y="9" width="2" height="2" fill="white"/>
<rect x="11" y="14" width="2" height="2" fill="white"/>
</svg>
