<svg width="23" height="22" viewBox="0 0 23 22" fill="none" xmlns="http://www.w3.org/2000/svg">
<mask id="path-1-inside-1_1654_1665" fill="white">
<path d="M9.971 22H12.0496C12.8419 22 13.449 21.5164 13.6342 20.7549L14.0767 18.8307L14.406 18.7175L16.0833 19.7465C16.7521 20.1684 17.5239 20.0655 18.0898 19.4995L19.5304 18.0692C20.0963 17.5033 20.1992 16.7212 19.7774 16.0627L18.7278 14.3957L18.8513 14.087L20.7755 13.6342C21.5267 13.449 22.0206 12.8316 22.0206 12.0496V10.0122C22.0206 9.23012 21.5369 8.61272 20.7755 8.4275L18.8718 7.96445L18.7381 7.63517L19.7876 5.96819C20.2095 5.30964 20.1066 4.53789 19.5407 3.96165L18.1001 2.52105C17.5444 1.96539 16.7727 1.86249 16.1038 2.27409L14.4266 3.30309L14.0767 3.16932L13.6342 1.24509C13.449 0.48363 12.8419 0 12.0496 0H9.971C9.17867 0 8.57156 0.48363 8.38634 1.24509L7.93358 3.16932L7.58372 3.30309L5.91674 2.27409C5.24789 1.86249 4.46586 1.96539 3.9102 2.52105L2.47989 3.96165C1.91394 4.53789 1.80075 5.30964 2.23293 5.96819L3.27222 7.63517L3.14874 7.96445L1.24509 8.4275C0.483629 8.61272 0 9.23012 0 10.0122V12.0496C0 12.8316 0.493919 13.449 1.24509 13.6342L3.16932 14.087L3.28251 14.3957L2.24322 16.0627C1.81104 16.7212 1.92423 17.5033 2.49018 18.0692L3.92049 19.4995C4.48644 20.0655 5.26847 20.1684 5.93732 19.7465L7.6043 18.7175L7.93358 18.8307L8.38634 20.7549C8.57156 21.5164 9.17867 22 9.971 22ZM10.1356 20.3948C9.96071 20.3948 9.8681 20.3227 9.83723 20.1581L9.21983 17.6062C8.59214 17.4518 8.00561 17.2049 7.56314 16.927L5.31992 18.3059C5.19644 18.3985 5.06267 18.3779 4.93919 18.2544L3.72498 17.0402C3.61179 16.927 3.6015 16.8036 3.68382 16.6595L5.06267 14.4369C4.826 14.0047 4.55847 13.4181 4.39383 12.7905L1.84191 12.1833C1.67727 12.1525 1.60524 12.0599 1.60524 11.8849V10.1665C1.60524 9.98129 1.66698 9.89897 1.84191 9.8681L4.38354 9.2507C4.54818 8.58185 4.85687 7.97474 5.04209 7.59401L3.67353 5.37137C3.58092 5.21703 3.59121 5.09355 3.7044 4.97007L4.9289 3.77643C5.05238 3.65295 5.16557 3.63237 5.31992 3.72498L7.54256 5.07297C7.98503 4.82601 8.61272 4.56876 9.23012 4.39383L9.83723 1.84191C9.8681 1.67727 9.96071 1.60524 10.1356 1.60524H11.8849C12.0599 1.60524 12.1525 1.67727 12.1731 1.84191L12.8007 4.41441C13.4387 4.57905 13.9944 4.8363 14.4574 5.08326L16.6904 3.72498C16.855 3.63237 16.9579 3.65295 17.0917 3.77643L18.3059 4.97007C18.4294 5.09355 18.4294 5.21703 18.3368 5.37137L16.9682 7.59401C17.1637 7.97474 17.4621 8.58185 17.6268 9.2507L20.1787 9.8681C20.3433 9.89897 20.4153 9.98129 20.4153 10.1665V11.8849C20.4153 12.0599 20.333 12.1525 20.1787 12.1833L17.6165 12.7905C17.4518 13.4181 17.1946 14.0047 16.9476 14.4369L18.3265 16.6595C18.4088 16.8036 18.4088 16.927 18.2853 17.0402L17.0814 18.2544C16.9476 18.3779 16.8241 18.3985 16.6904 18.3059L14.4471 16.927C14.0047 17.2049 13.4284 17.4518 12.8007 17.6062L12.1731 20.1581C12.1525 20.3227 12.0599 20.3948 11.8849 20.3948H10.1356ZM11.0103 14.9308C13.1609 14.9308 14.9308 13.1609 14.9308 11C14.9308 8.85968 13.1609 7.0898 11.0103 7.0898C8.85968 7.0898 7.07951 8.85968 7.07951 11C7.07951 13.1506 8.84939 14.9308 11.0103 14.9308ZM11.0103 13.3358C9.73433 13.3358 8.68475 12.2862 8.68475 11C8.68475 9.73433 9.73433 8.68475 11.0103 8.68475C12.2657 8.68475 13.3152 9.73433 13.3152 11C13.3152 12.276 12.2657 13.3358 11.0103 13.3358Z"/>
</mask>
<path d="M9.971 22H12.0496C12.8419 22 13.449 21.5164 13.6342 20.7549L14.0767 18.8307L14.406 18.7175L16.0833 19.7465C16.7521 20.1684 17.5239 20.0655 18.0898 19.4995L19.5304 18.0692C20.0963 17.5033 20.1992 16.7212 19.7774 16.0627L18.7278 14.3957L18.8513 14.087L20.7755 13.6342C21.5267 13.449 22.0206 12.8316 22.0206 12.0496V10.0122C22.0206 9.23012 21.5369 8.61272 20.7755 8.4275L18.8718 7.96445L18.7381 7.63517L19.7876 5.96819C20.2095 5.30964 20.1066 4.53789 19.5407 3.96165L18.1001 2.52105C17.5444 1.96539 16.7727 1.86249 16.1038 2.27409L14.4266 3.30309L14.0767 3.16932L13.6342 1.24509C13.449 0.48363 12.8419 0 12.0496 0H9.971C9.17867 0 8.57156 0.48363 8.38634 1.24509L7.93358 3.16932L7.58372 3.30309L5.91674 2.27409C5.24789 1.86249 4.46586 1.96539 3.9102 2.52105L2.47989 3.96165C1.91394 4.53789 1.80075 5.30964 2.23293 5.96819L3.27222 7.63517L3.14874 7.96445L1.24509 8.4275C0.483629 8.61272 0 9.23012 0 10.0122V12.0496C0 12.8316 0.493919 13.449 1.24509 13.6342L3.16932 14.087L3.28251 14.3957L2.24322 16.0627C1.81104 16.7212 1.92423 17.5033 2.49018 18.0692L3.92049 19.4995C4.48644 20.0655 5.26847 20.1684 5.93732 19.7465L7.6043 18.7175L7.93358 18.8307L8.38634 20.7549C8.57156 21.5164 9.17867 22 9.971 22ZM10.1356 20.3948C9.96071 20.3948 9.8681 20.3227 9.83723 20.1581L9.21983 17.6062C8.59214 17.4518 8.00561 17.2049 7.56314 16.927L5.31992 18.3059C5.19644 18.3985 5.06267 18.3779 4.93919 18.2544L3.72498 17.0402C3.61179 16.927 3.6015 16.8036 3.68382 16.6595L5.06267 14.4369C4.826 14.0047 4.55847 13.4181 4.39383 12.7905L1.84191 12.1833C1.67727 12.1525 1.60524 12.0599 1.60524 11.8849V10.1665C1.60524 9.98129 1.66698 9.89897 1.84191 9.8681L4.38354 9.2507C4.54818 8.58185 4.85687 7.97474 5.04209 7.59401L3.67353 5.37137C3.58092 5.21703 3.59121 5.09355 3.7044 4.97007L4.9289 3.77643C5.05238 3.65295 5.16557 3.63237 5.31992 3.72498L7.54256 5.07297C7.98503 4.82601 8.61272 4.56876 9.23012 4.39383L9.83723 1.84191C9.8681 1.67727 9.96071 1.60524 10.1356 1.60524H11.8849C12.0599 1.60524 12.1525 1.67727 12.1731 1.84191L12.8007 4.41441C13.4387 4.57905 13.9944 4.8363 14.4574 5.08326L16.6904 3.72498C16.855 3.63237 16.9579 3.65295 17.0917 3.77643L18.3059 4.97007C18.4294 5.09355 18.4294 5.21703 18.3368 5.37137L16.9682 7.59401C17.1637 7.97474 17.4621 8.58185 17.6268 9.2507L20.1787 9.8681C20.3433 9.89897 20.4153 9.98129 20.4153 10.1665V11.8849C20.4153 12.0599 20.333 12.1525 20.1787 12.1833L17.6165 12.7905C17.4518 13.4181 17.1946 14.0047 16.9476 14.4369L18.3265 16.6595C18.4088 16.8036 18.4088 16.927 18.2853 17.0402L17.0814 18.2544C16.9476 18.3779 16.8241 18.3985 16.6904 18.3059L14.4471 16.927C14.0047 17.2049 13.4284 17.4518 12.8007 17.6062L12.1731 20.1581C12.1525 20.3227 12.0599 20.3948 11.8849 20.3948H10.1356ZM11.0103 14.9308C13.1609 14.9308 14.9308 13.1609 14.9308 11C14.9308 8.85968 13.1609 7.0898 11.0103 7.0898C8.85968 7.0898 7.07951 8.85968 7.07951 11C7.07951 13.1506 8.84939 14.9308 11.0103 14.9308ZM11.0103 13.3358C9.73433 13.3358 8.68475 12.2862 8.68475 11C8.68475 9.73433 9.73433 8.68475 11.0103 8.68475C12.2657 8.68475 13.3152 9.73433 13.3152 11C13.3152 12.276 12.2657 13.3358 11.0103 13.3358Z" fill="white" stroke="#121212" stroke-width="0.4" mask="url(#path-1-inside-1_1654_1665)"/>
</svg>
