<svg width="23" height="21" viewBox="0 0 23 21" fill="none" xmlns="http://www.w3.org/2000/svg">
<path d="M11.2121 2.64748L11.3568 2.86534L11.503 2.64847C12.5122 1.15123 14.1742 0.175 16.2304 0.175C19.831 0.175 22.5407 2.94729 22.5407 6.9085C22.5407 11.6835 18.5314 16.4298 12.1012 20.5421C11.9815 20.6126 11.8421 20.6847 11.7063 20.7388C11.5661 20.7946 11.4448 20.825 11.3578 20.825C11.2709 20.825 11.1496 20.7946 11.0113 20.739C10.8769 20.6849 10.7405 20.6129 10.6275 20.5431C4.18495 16.4306 0.175 11.6839 0.175 6.9085C0.175 2.94729 2.88467 0.175 6.48529 0.175C8.54197 0.175 10.2261 1.16302 11.2121 2.64748ZM6.46242 1.6665C5.0892 1.6665 3.88678 2.19128 3.02865 3.11496C2.17113 4.03799 1.6665 5.34918 1.6665 6.9085C1.6665 9.09536 2.8196 11.3448 4.55345 13.4341C6.28879 15.5251 8.62271 17.4762 11.0269 19.0719C11.0766 19.1105 11.1265 19.1481 11.1717 19.1765C11.1952 19.1913 11.2214 19.2062 11.2488 19.2178C11.2743 19.2287 11.3128 19.242 11.3578 19.242C11.4028 19.242 11.4413 19.2287 11.4664 19.2181C11.4934 19.2068 11.5196 19.1922 11.543 19.178C11.5855 19.1522 11.635 19.1175 11.6854 19.0822L11.6967 19.0743C14.0964 17.4781 16.4289 15.5261 18.1637 13.434C19.8961 11.3448 21.0492 9.09535 21.0492 6.9085C21.0492 5.34918 20.5446 4.03799 19.687 3.11496C18.8289 2.19128 17.6265 1.6665 16.2533 1.6665C14.0254 1.6665 12.7904 3.08999 11.9938 4.22091C11.8293 4.44206 11.7164 4.5695 11.6195 4.64308C11.5322 4.70936 11.458 4.73186 11.3578 4.73186C11.2534 4.73186 11.1732 4.70978 11.0849 4.64538C10.9887 4.57518 10.8769 4.45028 10.7263 4.22737C9.98082 3.0632 8.69941 1.6665 6.46242 1.6665Z" fill="white" stroke="#121212" stroke-width="0.35"/>
</svg>
