<svg width="26" height="20" viewBox="0 0 26 20" fill="none" xmlns="http://www.w3.org/2000/svg">
<path d="M24.2065 4.80217H24.4065V4.60217V3.68867C24.4065 3.05415 24.2399 2.54101 23.9004 2.18598C23.5596 1.82963 23.0725 1.66168 22.4924 1.66168H3.4944C2.90429 1.66168 2.41622 1.82911 2.07751 2.18667C1.74048 2.54245 1.58038 3.05595 1.58038 3.68867V4.60217V4.80217H1.78038H24.2065ZM1.78038 7.02702H1.58038V7.22702V16.0729C1.58038 16.7056 1.74049 17.2167 2.07816 17.5698C2.41724 17.9244 2.90531 18.0883 3.4944 18.0883H22.4924C23.0714 18.0883 23.5586 17.9239 23.8997 17.5705C24.2399 17.2182 24.4065 16.7074 24.4065 16.0729V7.22702V7.02702H24.2065H1.78038ZM22.5146 19.55H3.47228C2.34908 19.55 1.54155 19.2609 1.01283 18.7173C0.483102 18.1726 0.2 17.3384 0.2 16.177V3.5846C0.2 2.42317 0.483106 1.58579 1.01316 1.03814C1.54206 0.491685 2.34959 0.2 3.47228 0.2H22.5146C23.643 0.2 24.4503 0.491806 24.9777 1.03796C25.5063 1.58543 25.7868 2.4227 25.7868 3.5846V16.177C25.7868 17.3389 25.5063 18.173 24.978 18.7175C24.4508 19.2608 23.6435 19.55 22.5146 19.55ZM7.67441 15.5029H4.96515C4.68807 15.5029 4.47088 15.4058 4.32266 15.2519C4.17369 15.0973 4.08144 14.8717 4.08144 14.5928V12.4536C4.08144 12.1682 4.17411 11.9432 4.32215 11.7907C4.46961 11.6387 4.68659 11.5435 4.96515 11.5435H7.67441C7.95296 11.5435 8.16994 11.6387 8.31741 11.7907C8.46545 11.9432 8.55812 12.1682 8.55812 12.4536V14.5928C8.55812 14.8717 8.46587 15.0973 8.31689 15.2519C8.16868 15.4058 7.95149 15.5029 7.67441 15.5029Z" fill="white" stroke="#121212" stroke-width="0.4"/>
</svg>
