<svg width="46" height="45" viewBox="0 0 46 45" fill="none" xmlns="http://www.w3.org/2000/svg">
<path fill-rule="evenodd" clip-rule="evenodd" d="M3.08496 22.569C3.08496 11.6664 11.9232 2.82812 22.8258 2.82812C33.7283 2.82812 42.5666 11.6664 42.5666 22.569C42.5666 28.068 40.3182 33.0419 36.6904 36.6214C33.6618 31.9545 28.438 29.069 22.8258 29.069C17.2136 29.069 11.9898 31.9545 8.96116 36.6214C5.33343 33.0419 3.08496 28.068 3.08496 22.569ZM10.6114 38.0784C13.9718 40.7284 18.2141 42.3098 22.8258 42.3098C27.4375 42.3098 31.6798 40.7284 35.0402 38.0784C32.4167 33.8484 27.7902 31.2429 22.8258 31.2429C17.8614 31.2429 13.2349 33.8484 10.6114 38.0784ZM22.8258 0.328125C10.5425 0.328125 0.584961 10.2857 0.584961 22.569C0.584961 34.8522 10.5425 44.8098 22.8258 44.8098C35.1091 44.8098 45.0666 34.8522 45.0666 22.569C45.0666 10.2857 35.1091 0.328125 22.8258 0.328125ZM14.3258 18.069C14.3258 22.4864 18.1323 26.069 22.8258 26.069C27.5193 26.069 31.3258 22.4864 31.3258 18.069C31.3258 13.6516 27.5193 10.069 22.8258 10.069C18.1323 10.069 14.3258 13.6516 14.3258 18.069ZM29.1084 18.069C29.1084 21.3385 26.2997 23.982 22.8258 23.982C19.3519 23.982 16.5432 21.3385 16.5432 18.069C16.5432 14.7994 19.3519 12.1559 22.8258 12.1559C26.2997 12.1559 29.1084 14.7994 29.1084 18.069Z" fill="white"/>
</svg>
