<svg width="22" height="24" viewBox="0 0 22 24" fill="none" xmlns="http://www.w3.org/2000/svg">
<path d="M18.8517 8.55615C18.6048 8.74186 18.4125 8.86567 18.3545 8.90746C17.8245 9.23823 17.2384 9.4831 16.6211 9.63173C16.2896 9.71066 16.2316 9.80506 16.3261 10.1161C16.7523 11.5013 16.6521 12.9814 16.0427 14.3055C15.8289 14.7883 15.403 14.9106 14.9224 14.6475C14.7699 14.5639 14.6225 14.4726 14.4733 14.3829C13.1392 13.5905 11.8085 12.7873 10.8904 11.5492C10.7909 11.4146 10.6948 11.4718 10.5888 11.5152C9.14366 12.0955 7.74496 12.7409 6.64788 13.8366C6.24848 14.2389 5.68337 14.1368 5.44141 13.64C4.88458 12.4886 4.64926 11.2969 4.97739 10.048C5.03871 9.81899 4.93762 9.76328 4.73709 9.72149C4.14376 9.62434 3.57398 9.42828 3.055 9.14269C3.00363 9.11174 2.84951 9.02198 2.64401 8.89662C-1.87691 13.1525 0.489616 18.2518 1.80048 19.9294C7.64221 26.4216 17.1779 23.851 20.3432 19.0148C21.0293 17.9098 23.3527 12.4545 18.8517 8.55615Z" fill="white"/>
<path d="M2.12891 7.17421C2.757 7.07517 3.35526 6.97767 3.95186 6.88481C4.84511 6.74707 5.72675 6.52886 6.64817 6.64648C7.18422 6.72042 7.70573 6.86746 8.19603 7.0829C8.25305 7.11001 8.30234 7.14942 8.33981 7.19787C8.37728 7.24631 8.40184 7.3024 8.41147 7.36147C8.56008 7.82398 8.73545 8.27861 8.93681 8.72337C9.16054 9.22015 9.51684 9.4167 9.93115 9.2542C10.3455 9.0917 10.4697 8.72956 10.2527 8.25289C9.46381 6.51803 9.24008 4.6934 9.31631 2.83627C9.32298 2.28417 9.46709 1.74109 9.73725 1.24997C9.85402 1.01854 10.0507 0.830494 10.2957 0.716047C10.6139 0.579858 10.7929 0.686643 10.8128 1.01009C10.8163 1.1749 10.7905 1.3391 10.7366 1.49604C10.2079 3.21698 10.5244 4.86983 11.2155 6.48708C11.4177 6.96683 11.6712 7.42647 11.9099 7.8923C12.122 8.31016 12.5065 8.47111 12.876 8.30706C13.2771 8.12909 13.4296 7.74064 13.171 7.33207C12.9539 6.99005 13.0733 6.86779 13.3964 6.70219C13.8099 6.47808 14.2674 6.33407 14.7418 6.27877C15.2162 6.22346 15.6976 6.25799 16.1574 6.38029C17.0274 6.60469 17.8908 6.86779 18.8537 6.98231C18.4396 7.49 17.9075 7.90328 17.2975 8.19099C16.6358 8.50543 15.9258 8.72209 15.1929 8.83325C14.4222 8.96944 14.2101 9.41979 14.641 10.0156C15.0719 10.6114 15.1547 11.3264 15.1663 12.0275C15.1667 12.4014 15.1256 12.7743 15.0437 13.1402C15.0089 13.3074 14.9492 13.3321 14.7901 13.2362C13.6036 12.5243 12.47 11.7582 11.7425 10.5898C11.4923 10.192 11.194 10.1255 10.715 10.2803C9.23872 10.7567 7.8514 11.4459 6.60343 12.3231C6.4029 12.4655 6.37307 12.4005 6.32833 12.207C6.1626 11.4518 6.28193 10.7229 6.49405 9.99705C6.72441 9.23408 6.55868 8.97253 5.7251 8.82551C4.58658 8.60884 3.50772 8.25289 2.57304 7.57814C2.40139 7.46816 2.25117 7.33155 2.12891 7.17421V7.17421Z" fill="white"/>
</svg>
