<svg width="39" height="35" viewBox="0 0 39 35" fill="none" xmlns="http://www.w3.org/2000/svg">
<g clip-path="url(#clip0_1226_3358)">
<path opacity="0.75" d="M30.2792 26.16C30.9485 26.1608 31.6111 26.2933 32.2292 26.55V6.34004C30.7837 4.3776 28.8979 2.78167 26.7235 1.68056C24.549 0.579437 22.1466 0.00384263 19.7092 4.3055e-05H18.9992C16.4865 -0.00586751 14.0097 0.596855 11.7806 1.75667C9.5515 2.91649 7.63646 4.5989 6.19922 6.66004V26.74C6.92562 26.3635 7.73103 26.1647 8.54922 26.16H30.2792Z" fill="white"/>
<path opacity="0.75" d="M2.1 4.45996C1.54305 4.45996 1.0089 4.68121 0.615076 5.07504C0.221249 5.46886 0 6.00301 0 6.55996L0 29.56C0.00262957 30.1161 0.224723 30.6487 0.617981 31.042C1.01124 31.4352 1.54386 31.6573 2.1 31.66C2.55209 31.6549 2.99049 31.5041 3.35 31.23C3.38289 30.2757 3.67689 29.3487 4.2 28.55V6.54996C4.19736 5.99474 3.97494 5.46316 3.5814 5.0715C3.18786 4.67983 2.65523 4.45995 2.1 4.45996Z" fill="white"/>
<path opacity="0.75" d="M36.4305 4.45996H36.2305C35.7 4.45996 35.1913 4.67067 34.8163 5.04575C34.4412 5.42082 34.2305 5.92953 34.2305 6.45996V28C35.0374 28.9341 35.4842 30.1256 35.4905 31.36V31.46C35.7254 31.5565 35.9765 31.6074 36.2305 31.61H36.4305C36.9609 31.61 37.4696 31.3992 37.8447 31.0242C38.2198 30.6491 38.4305 30.1404 38.4305 29.61V6.45996C38.4305 5.92953 38.2198 5.42082 37.8447 5.04575C37.4696 4.67067 36.9609 4.45996 36.4305 4.45996Z" fill="white"/>
<path d="M32.2294 28.8397C31.953 28.6275 31.6416 28.4651 31.3094 28.3597C30.9884 28.2444 30.6504 28.1836 30.3094 28.1797H8.54941C8.15871 28.1781 7.77146 28.2528 7.40941 28.3997C7.08435 28.5191 6.78302 28.6951 6.51941 28.9197C6.40557 29.0118 6.29861 29.112 6.19941 29.2197C6.06663 29.3528 5.94923 29.5004 5.84941 29.6597C5.51653 30.1753 5.33946 30.776 5.33941 31.3897V31.5897C5.32957 31.7195 5.32957 31.8499 5.33941 31.9797C5.43223 32.7558 5.80588 33.4711 6.38987 33.9906C6.97386 34.5101 7.72779 34.7979 8.50941 34.7997H30.2794C30.9843 34.7973 31.6689 34.563 32.2273 34.1328C32.7858 33.7027 33.1871 33.1007 33.3694 32.4197C33.445 32.1494 33.4853 31.8704 33.4894 31.5897V31.3897C33.4855 30.732 33.2834 30.0908 32.9094 29.5497C32.7181 29.2815 32.4891 29.0424 32.2294 28.8397V28.8397Z" fill="white"/>
</g>
<defs>
<clipPath id="clip0_1226_3358">
<rect width="38.43" height="34.78" fill="white"/>
</clipPath>
</defs>
</svg>
