<svg width="39" height="35" viewBox="0 0 39 35" fill="none" xmlns="http://www.w3.org/2000/svg">
<path opacity="0.9" fill-rule="evenodd" clip-rule="evenodd" d="M32.2292 26.55C31.6111 26.2933 30.9485 26.1608 30.2792 26.16H8.54922C7.73103 26.1647 6.92562 26.3635 6.19922 26.74V6.66008C7.63646 4.59894 9.5515 2.91653 11.7806 1.75671C14.0097 0.596897 16.4865 -0.0058252 18.9992 8.53667e-05H19.7092C22.1466 0.00388494 24.549 0.579479 26.7235 1.6806C28.8979 2.78171 30.7837 4.37764 32.2292 6.34008V26.55ZM0.615076 5.07508C1.0089 4.68125 1.54305 4.46 2.1 4.46C2.65523 4.45999 3.18786 4.67987 3.5814 5.07154C3.97494 5.4632 4.19736 5.99478 4.2 6.55V28.55C3.67689 29.3487 3.38289 30.2757 3.35 31.23C2.99049 31.5041 2.55209 31.6549 2.1 31.66C1.54386 31.6573 1.01124 31.4352 0.617981 31.042C0.224723 30.6487 0.00262957 30.1161 0 29.56V6.56C0 6.00305 0.221249 5.4689 0.615076 5.07508ZM36.4305 4.46H36.2305C35.7 4.46 35.1913 4.67071 34.8163 5.04579C34.4412 5.42086 34.2305 5.92957 34.2305 6.46V28C35.0374 28.9341 35.4842 30.1256 35.4905 31.36V31.46C35.7254 31.5565 35.9765 31.6074 36.2305 31.61H36.4305C36.9609 31.61 37.4696 31.3992 37.8447 31.0242C38.2198 30.6491 38.4305 30.1404 38.4305 29.61V6.46C38.4305 5.92957 38.2198 5.42086 37.8447 5.04579C37.4696 4.67071 36.9609 4.46 36.4305 4.46ZM31.3094 28.3597C31.6416 28.4651 31.953 28.6275 32.2294 28.8397C32.4891 29.0424 32.7181 29.2815 32.9094 29.5497C33.2834 30.0908 33.4855 30.732 33.4894 31.3897V31.5897C33.4853 31.8704 33.445 32.1494 33.3694 32.4197C33.1871 33.1007 32.7858 33.7027 32.2273 34.1328C31.6689 34.563 30.9843 34.7973 30.2794 34.7997H8.50941C7.72779 34.7979 6.97386 34.5101 6.38987 33.9906C5.80588 33.4711 5.43223 32.7558 5.33941 31.9797C5.32957 31.8499 5.32957 31.7195 5.33941 31.5897V31.3897C5.33946 30.776 5.51653 30.1753 5.84941 29.6597C5.94923 29.5004 6.06663 29.3528 6.19941 29.2197C6.29861 29.112 6.40557 29.0118 6.51941 28.9197C6.78302 28.6951 7.08435 28.5191 7.40941 28.3997C7.77146 28.2528 8.15871 28.1781 8.54941 28.1797H30.3094C30.6504 28.1836 30.9884 28.2444 31.3094 28.3597Z" fill="#202020"/>
</svg>
