<svg width="103" height="99" viewBox="0 0 103 99" fill="none" xmlns="http://www.w3.org/2000/svg">
<g filter="url(#filter0_d_1234_3422)">
<path fill-rule="evenodd" clip-rule="evenodd" d="M64.2292 58.55C63.6111 58.2933 62.9485 58.1608 62.2792 58.16H40.5492C39.731 58.1647 38.9256 58.3635 38.1992 58.74V38.6601C39.6365 36.5989 41.5515 34.9165 43.7806 33.7567C46.0097 32.5969 48.4865 31.9942 50.9992 32.0001H51.7092C54.1466 32.0039 56.549 32.5795 58.7235 33.6806C60.8979 34.7817 62.7837 36.3776 64.2292 38.3401V58.55ZM32.6151 37.0751C33.0089 36.6813 33.543 36.46 34.1 36.46C34.6552 36.46 35.1879 36.6799 35.5814 37.0715C35.9749 37.4632 36.1974 37.9948 36.2 38.55V60.55C35.6769 61.3487 35.3829 62.2757 35.35 63.23C34.9905 63.5041 34.5521 63.6549 34.1 63.66C33.5439 63.6573 33.0112 63.4352 32.618 63.042C32.2247 62.6487 32.0026 62.1161 32 61.56V38.56C32 38.0031 32.2212 37.4689 32.6151 37.0751ZM68.4305 36.46H68.2305C67.7 36.46 67.1913 36.6707 66.8163 37.0458C66.4412 37.4209 66.2305 37.9296 66.2305 38.46V60C67.0374 60.9341 67.4842 62.1256 67.4905 63.36V63.46C67.7254 63.5565 67.9765 63.6074 68.2305 63.61H68.4305C68.9609 63.61 69.4696 63.3992 69.8447 63.0242C70.2198 62.6491 70.4305 62.1404 70.4305 61.61V38.46C70.4305 37.9296 70.2198 37.4209 69.8447 37.0458C69.4696 36.6707 68.9609 36.46 68.4305 36.46ZM63.3094 60.3597C63.6416 60.4651 63.953 60.6275 64.2294 60.8397C64.4891 61.0424 64.7181 61.2815 64.9094 61.5497C65.2834 62.0908 65.4855 62.732 65.4894 63.3897V63.5897C65.4853 63.8704 65.445 64.1494 65.3694 64.4197C65.1871 65.1007 64.7858 65.7027 64.2273 66.1328C63.6689 66.563 62.9843 66.7973 62.2794 66.7997H40.5094C39.7278 66.7979 38.9739 66.5101 38.3899 65.9906C37.8059 65.4711 37.4322 64.7558 37.3394 63.9797C37.3296 63.8499 37.3296 63.7195 37.3394 63.5897V63.3897C37.3395 62.776 37.5165 62.1753 37.8494 61.6597C37.9492 61.5004 38.0666 61.3528 38.1994 61.2197C38.2986 61.112 38.4056 61.0118 38.5194 60.9197C38.783 60.6951 39.0844 60.5191 39.4094 60.3997C39.7715 60.2528 40.1587 60.1781 40.5494 60.1797H62.3094C62.6504 60.1836 62.9884 60.2444 63.3094 60.3597Z" fill="#F53D3D"/>
</g>
<defs>
<filter id="filter0_d_1234_3422" x="0" y="0" width="102.431" height="98.7998" filterUnits="userSpaceOnUse" color-interpolation-filters="sRGB">
<feFlood flood-opacity="0" result="BackgroundImageFix"/>
<feColorMatrix in="SourceAlpha" type="matrix" values="0 0 0 0 0 0 0 0 0 0 0 0 0 0 0 0 0 0 127 0" result="hardAlpha"/>
<feOffset/>
<feGaussianBlur stdDeviation="16"/>
<feComposite in2="hardAlpha" operator="out"/>
<feColorMatrix type="matrix" values="0 0 0 0 0.960784 0 0 0 0 0.239216 0 0 0 0 0.239216 0 0 0 0.6 0"/>
<feBlend mode="normal" in2="BackgroundImageFix" result="effect1_dropShadow_1234_3422"/>
<feBlend mode="normal" in="SourceGraphic" in2="effect1_dropShadow_1234_3422" result="shape"/>
</filter>
</defs>
</svg>
