<svg width="322" height="501" viewBox="0 0 322 501" fill="none" xmlns="http://www.w3.org/2000/svg">
<path d="M315.836 22.7341C310.431 22.7341 305.248 20.5883 301.427 16.7689C297.605 12.9494 295.458 7.76916 295.458 2.36765C295.461 1.57619 295.511 0.785598 295.607 0L286.925 0C286.925 2.74343 285.835 5.3745 283.894 7.31439C281.953 9.25429 279.32 10.3441 276.575 10.3441C273.83 10.3441 271.197 9.25429 269.256 7.31439C267.315 5.3745 266.225 2.74343 266.225 0L253.897 0C253.897 2.74343 252.807 5.3745 250.866 7.31439C248.925 9.25429 246.292 10.3441 243.547 10.3441C240.802 10.3441 238.169 9.25429 236.228 7.31439C234.287 5.3745 233.197 2.74343 233.197 0L220.869 0C220.869 2.74343 219.779 5.3745 217.838 7.31439C215.897 9.25429 213.264 10.3441 210.519 10.3441C207.774 10.3441 205.141 9.25429 203.2 7.31439C201.259 5.3745 200.169 2.74343 200.169 0L187.841 0C187.841 2.74343 186.751 5.3745 184.81 7.31439C182.869 9.25429 180.236 10.3441 177.491 10.3441C174.746 10.3441 172.113 9.25429 170.172 7.31439C168.231 5.3745 167.141 2.74343 167.141 0L154.813 0C154.813 2.74343 153.723 5.3745 151.782 7.31439C149.841 9.25429 147.208 10.3441 144.463 10.3441C141.718 10.3441 139.085 9.25429 137.144 7.31439C135.203 5.3745 134.113 2.74343 134.113 0L121.785 0C121.785 2.74343 120.695 5.3745 118.754 7.31439C116.813 9.25429 114.18 10.3441 111.435 10.3441C108.69 10.3441 106.057 9.25429 104.116 7.31439C102.175 5.3745 101.085 2.74343 101.085 0L88.757 0C88.757 2.74343 87.6666 5.3745 85.7256 7.31439C83.7846 9.25429 81.152 10.3441 78.407 10.3441C75.662 10.3441 73.0294 9.25429 71.0884 7.31439C69.1474 5.3745 68.057 2.74343 68.057 0L55.729 0C55.729 2.74343 54.6386 5.3745 52.6976 7.31439C50.7566 9.25429 48.124 10.3441 45.379 10.3441C42.634 10.3441 40.0014 9.25429 38.0604 7.31439C36.1194 5.3745 35.029 2.74343 35.029 0L26.45 0C26.5463 0.785598 26.5962 1.57619 26.5995 2.36765C26.5995 5.04705 26.0705 7.70012 25.0428 10.1748C24.0152 12.6496 22.509 14.8973 20.6106 16.7892C18.7122 18.6812 16.459 20.1802 13.98 21.2003C11.501 22.2204 8.84491 22.7416 6.164 22.7341C4.07533 22.7553 1.99599 22.4529 0 21.8376L0 483.955C2.86571 483.037 5.89943 482.765 8.88298 483.158C11.8665 483.552 14.7257 484.601 17.255 486.231C19.7842 487.861 21.9206 490.031 23.5105 492.584C25.1004 495.138 26.1043 498.012 26.45 501H35.075C35.075 499.642 35.3427 498.296 35.8628 497.041C36.383 495.786 37.1454 494.646 38.1064 493.686C39.0675 492.725 40.2085 491.963 41.4642 491.443C42.7199 490.923 44.0658 490.656 45.425 490.656C46.7842 490.656 48.1301 490.923 49.3858 491.443C50.6415 491.963 51.7825 492.725 52.7436 493.686C53.7046 494.646 54.467 495.786 54.9872 497.041C55.5073 498.296 55.775 499.642 55.775 501H68.103C68.103 498.257 69.1934 495.626 71.1344 493.686C73.0754 491.746 75.708 490.656 78.453 490.656C81.198 490.656 83.8306 491.746 85.7716 493.686C87.7126 495.626 88.803 498.257 88.803 501H101.131C101.131 498.257 102.221 495.626 104.162 493.686C106.103 491.746 108.736 490.656 111.481 490.656C114.226 490.656 116.859 491.746 118.8 493.686C120.741 495.626 121.831 498.257 121.831 501H134.205C134.205 499.642 134.473 498.296 134.993 497.041C135.513 495.786 136.275 494.646 137.236 493.686C138.198 492.725 139.339 491.963 140.594 491.443C141.85 490.923 143.196 490.656 144.555 490.656C145.914 490.656 147.26 490.923 148.516 491.443C149.771 491.963 150.912 492.725 151.874 493.686C152.835 494.646 153.597 495.786 154.117 497.041C154.637 498.296 154.905 499.642 154.905 501H167.279C167.279 498.257 168.369 495.626 170.31 493.686C172.251 491.746 174.884 490.656 177.629 490.656C180.374 490.656 183.007 491.746 184.948 493.686C186.889 495.626 187.979 498.257 187.979 501H200.215C200.215 498.257 201.305 495.626 203.246 493.686C205.187 491.746 207.82 490.656 210.565 490.656C213.31 490.656 215.943 491.746 217.884 493.686C219.825 495.626 220.915 498.257 220.915 501H233.289C233.289 498.257 234.379 495.626 236.32 493.686C238.261 491.746 240.894 490.656 243.639 490.656C246.384 490.656 249.017 491.746 250.958 493.686C252.899 495.626 253.989 498.257 253.989 501H266.363C266.363 498.257 267.453 495.626 269.394 493.686C271.335 491.746 273.968 490.656 276.713 490.656C279.458 490.656 282.091 491.746 284.032 493.686C285.973 495.626 287.063 498.257 287.063 501H295.746C296.097 498.035 297.098 495.183 298.676 492.648C300.254 490.112 302.37 487.954 304.876 486.328C307.381 484.701 310.214 483.646 313.173 483.236C316.133 482.825 319.146 483.071 322 483.955V21.8376C320.004 22.4529 317.925 22.7553 315.836 22.7341Z" fill="white"/>
</svg>
