<svg width="322" height="742" viewBox="0 0 322 742" fill="none" xmlns="http://www.w3.org/2000/svg">
<g clip-path="url(#clip0_1582_1635)">
<path d="M315.836 22.747C310.431 22.747 305.248 20.6 301.427 16.7784C297.605 12.9568 295.458 7.77358 295.458 2.369C295.461 1.57708 295.511 0.786045 295.607 0L286.925 0C286.925 2.74499 285.835 5.37755 283.894 7.31856C281.953 9.25956 279.32 10.35 276.575 10.35C273.83 10.35 271.197 9.25956 269.256 7.31856C267.315 5.37755 266.225 2.74499 266.225 0L253.897 0C253.897 2.74499 252.807 5.37755 250.866 7.31856C248.925 9.25956 246.292 10.35 243.547 10.35C240.802 10.35 238.169 9.25956 236.228 7.31856C234.287 5.37755 233.197 2.74499 233.197 0L220.869 0C220.869 2.74499 219.779 5.37755 217.838 7.31856C215.897 9.25956 213.264 10.35 210.519 10.35C207.774 10.35 205.141 9.25956 203.2 7.31856C201.259 5.37755 200.169 2.74499 200.169 0L187.841 0C187.841 2.74499 186.751 5.37755 184.81 7.31856C182.869 9.25956 180.236 10.35 177.491 10.35C174.746 10.35 172.113 9.25956 170.172 7.31856C168.231 5.37755 167.141 2.74499 167.141 0L154.813 0C154.813 2.74499 153.723 5.37755 151.782 7.31856C149.841 9.25956 147.208 10.35 144.463 10.35C141.718 10.35 139.085 9.25956 137.144 7.31856C135.203 5.37755 134.113 2.74499 134.113 0L121.785 0C121.785 2.74499 120.695 5.37755 118.754 7.31856C116.813 9.25956 114.18 10.35 111.435 10.35C108.69 10.35 106.057 9.25956 104.116 7.31856C102.175 5.37755 101.085 2.74499 101.085 0L88.757 0C88.757 2.74499 87.6666 5.37755 85.7256 7.31856C83.7846 9.25956 81.152 10.35 78.407 10.35C75.662 10.35 73.0294 9.25956 71.0884 7.31856C69.1474 5.37755 68.057 2.74499 68.057 0L55.729 0C55.729 2.74499 54.6386 5.37755 52.6976 7.31856C50.7566 9.25956 48.124 10.35 45.379 10.35C42.634 10.35 40.0014 9.25956 38.0604 7.31856C36.1194 5.37755 35.029 2.74499 35.029 0L26.45 0C26.5463 0.786045 26.5962 1.57708 26.5995 2.369C26.5995 5.04992 26.0705 7.7045 25.0428 10.1806C24.0152 12.6568 22.509 14.9058 20.6106 16.7988C18.7122 18.6918 16.459 20.1916 13.98 21.2124C11.501 22.2331 8.84491 22.7546 6.164 22.747C4.07533 22.7682 1.99599 22.4656 0 21.85L0 484.23C2.86571 483.312 5.89943 483.039 8.88298 483.433C11.8665 483.827 14.7257 484.877 17.255 486.508C19.7842 488.138 21.9206 490.309 23.5105 492.865C25.1004 495.42 26.1043 498.295 26.45 501.285H35.075C35.075 499.926 35.3427 498.58 35.8628 497.324C36.383 496.068 37.1454 494.928 38.1064 493.966C39.0675 493.005 40.2085 492.243 41.4642 491.723C42.7199 491.203 44.0658 490.935 45.425 490.935C46.7842 490.935 48.1301 491.203 49.3858 491.723C50.6415 492.243 51.7825 493.005 52.7436 493.966C53.7046 494.928 54.467 496.068 54.9872 497.324C55.5073 498.58 55.775 499.926 55.775 501.285H68.103C68.103 498.54 69.1934 495.907 71.1344 493.966C73.0754 492.025 75.708 490.935 78.453 490.935C81.198 490.935 83.8306 492.025 85.7716 493.966C87.7126 495.907 88.803 498.54 88.803 501.285H101.131C101.131 498.54 102.221 495.907 104.162 493.966C106.103 492.025 108.736 490.935 111.481 490.935C114.226 490.935 116.859 492.025 118.8 493.966C120.741 495.907 121.831 498.54 121.831 501.285H134.205C134.205 499.926 134.473 498.58 134.993 497.324C135.513 496.068 136.275 494.928 137.236 493.966C138.198 493.005 139.339 492.243 140.594 491.723C141.85 491.203 143.196 490.935 144.555 490.935C145.914 490.935 147.26 491.203 148.516 491.723C149.771 492.243 150.912 493.005 151.874 493.966C152.835 494.928 153.597 496.068 154.117 497.324C154.637 498.58 154.905 499.926 154.905 501.285H167.279C167.279 498.54 168.369 495.907 170.31 493.966C172.251 492.025 174.884 490.935 177.629 490.935C180.374 490.935 183.007 492.025 184.948 493.966C186.889 495.907 187.979 498.54 187.979 501.285H200.215C200.215 498.54 201.305 495.907 203.246 493.966C205.187 492.025 207.82 490.935 210.565 490.935C213.31 490.935 215.943 492.025 217.884 493.966C219.825 495.907 220.915 498.54 220.915 501.285H233.289C233.289 498.54 234.379 495.907 236.32 493.966C238.261 492.025 240.894 490.935 243.639 490.935C246.384 490.935 249.017 492.025 250.958 493.966C252.899 495.907 253.989 498.54 253.989 501.285H266.363C266.363 498.54 267.453 495.907 269.394 493.966C271.335 492.025 273.968 490.935 276.713 490.935C279.458 490.935 282.091 492.025 284.032 493.966C285.973 495.907 287.063 498.54 287.063 501.285H295.746C296.097 498.318 297.098 495.465 298.676 492.928C300.254 490.391 302.37 488.232 304.876 486.605C307.381 484.977 310.214 483.921 313.173 483.51C316.133 483.1 319.146 483.346 322 484.23V21.85C320.004 22.4656 317.925 22.7682 315.836 22.747Z" fill="white"/>
<path d="M322 523.25C318.749 524.3 315.287 524.512 311.932 523.869C308.577 523.225 305.439 521.746 302.808 519.567C300.177 517.389 298.138 514.582 296.879 511.407C295.62 508.231 295.183 504.789 295.607 501.4H286.925C286.925 504.145 285.835 506.777 283.894 508.718C281.953 510.659 279.32 511.75 276.575 511.75C273.83 511.75 271.197 510.659 269.256 508.718C267.315 506.777 266.225 504.145 266.225 501.4H253.897C253.897 504.145 252.807 506.777 250.866 508.718C248.925 510.659 246.292 511.75 243.547 511.75C240.802 511.75 238.169 510.659 236.228 508.718C234.287 506.777 233.197 504.145 233.197 501.4H220.869C220.869 504.145 219.779 506.777 217.838 508.718C215.897 510.659 213.264 511.75 210.519 511.75C207.774 511.75 205.141 510.659 203.2 508.718C201.259 506.777 200.169 504.145 200.169 501.4H187.841C187.841 504.145 186.751 506.777 184.81 508.718C182.869 510.659 180.236 511.75 177.491 511.75C174.746 511.75 172.113 510.659 170.172 508.718C168.231 506.777 167.141 504.145 167.141 501.4H154.813C154.813 504.145 153.723 506.777 151.782 508.718C149.841 510.659 147.208 511.75 144.463 511.75C141.718 511.75 139.085 510.659 137.144 508.718C135.203 506.777 134.113 504.145 134.113 501.4H121.785C121.785 504.145 120.695 506.777 118.754 508.718C116.813 510.659 114.18 511.75 111.435 511.75C108.69 511.75 106.057 510.659 104.116 508.718C102.175 506.777 101.085 504.145 101.085 501.4H88.757C88.757 504.145 87.6666 506.777 85.7256 508.718C83.7846 510.659 81.152 511.75 78.407 511.75C75.662 511.75 73.0294 510.659 71.0884 508.718C69.1474 506.777 68.057 504.145 68.057 501.4H55.729C55.729 504.145 54.6386 506.777 52.6976 508.718C50.7566 510.659 48.124 511.75 45.379 511.75C42.634 511.75 40.0014 510.659 38.0604 508.718C36.1194 506.777 35.029 504.145 35.029 501.4H26.45C26.5463 502.186 26.5962 502.977 26.5995 503.769C26.6115 506.984 25.8624 510.157 24.4133 513.028C22.9643 515.898 20.8565 518.385 18.2623 520.285C15.668 522.185 12.661 523.444 9.48698 523.96C6.31295 524.475 3.06204 524.232 0 523.25L0 732.55C0 734.99 0.969283 737.33 2.69462 739.055C4.41995 740.781 6.76001 741.75 9.2 741.75H312.8C315.24 741.75 317.58 740.781 319.305 739.055C321.031 737.33 322 734.99 322 732.55V523.25Z" fill="white"/>
</g>
<defs>
<clipPath id="clip0_1582_1635">
<rect width="322" height="741.635" fill="white"/>
</clipPath>
</defs>
</svg>
