<svg width="21" height="18" viewBox="0 0 21 18" fill="none" xmlns="http://www.w3.org/2000/svg">
<path d="M19.5 7.95C19.8866 7.95 20.2 7.6366 20.2 7.25V3.75C20.2 2.38987 19.0968 1.3 17.75 1.3H3.75C2.39862 1.3 1.30875 2.39444 1.30875 3.75V7.25C1.30875 7.6366 1.62215 7.95 2.00875 7.95C2.58009 7.95 3.05 8.41952 3.05 9C3.05 9.57818 2.58237 10.05 2 10.05C1.6134 10.05 1.3 10.3634 1.3 10.75V14.25C1.3 15.5991 2.4009 16.7 3.75 16.7H17.75C19.0991 16.7 20.2 15.5991 20.2 14.25V10.75C20.2 10.3634 19.8866 10.05 19.5 10.05C18.9241 10.05 18.45 9.5759 18.45 9C18.45 8.4241 18.9241 7.95 19.5 7.95ZM10.925 13.1125H10.575V12.7625H10.925V13.1125ZM10.925 9.175H10.575V8.825H10.925V9.175ZM10.925 5.2375H10.575V4.8875H10.925V5.2375Z" stroke="white" stroke-width="1.4" stroke-linejoin="round"/>
</svg>
